<svg xmlns="http://www.w3.org/2000/svg" viewBox="0 0 48 48" id="discussion"><circle cx="24" cy="33" r="5"></circle><path d="M28.6 38.27a6.87 6.87 0 0 1-3.6 1.65V41a1 1 0 0 1-2 0v-1.08a6.88 6.88 0 0 1-3.6-1.65A9 9 0 0 0 15.06 45a14.46 14.46 0 0 0-.06 2h18c0-3.48-.88-6.64-4.4-8.73zm6.92-2.93A5 5 0 1 0 38 26a5 5 0 0 0-2.47 9.34z"></path><path d="M44.36 37.64a8.59 8.59 0 0 0-1.76-1.37 6.11 6.11 0 0 1-1.13.81C38.66 38.67 39 37 39 39a1 1 0 0 1-2 0c0-2 .38-.34-2.47-1.92a7.73 7.73 0 0 1-1.14-.81 8.88 8.88 0 0 0-2 1.62 10.84 10.84 0 0 1 3.53 6.89C35 45.1 33.58 45 47 45c0-2.81-.39-5.13-2.64-7.36zM7.53 35.35A5 5 0 1 0 10 26a5 5 0 0 0-2.47 9.35z"></path><path d="M16.59 37.89a8.18 8.18 0 0 0-2-1.62A6.85 6.85 0 0 1 11 37.92V39a1 1 0 0 1-2 0v-1.08a6.88 6.88 0 0 1-3.6-1.65A9 9 0 0 0 1 44v1c13.4 0 12 .1 12.07-.24a10.84 10.84 0 0 1 3.52-6.87zM14 19v4l6-4h4a2 2 0 0 0 2-2h-3a4 4 0 0 1-4-4V5h-9a2 2 0 0 0-2 2c0 10.56-.22 10.62.59 11.41s1.7.59 5.41.59z"></path><path d="M23 15h4l6 4v-4h4a2 2 0 0 0 2-2V3a2 2 0 0 0-2-2H23a2 2 0 0 0-2 2v10a2 2 0 0 0 2 2Zm12-4h-5a1 1 0 0 1 0-2h5a1 1 0 0 1 0 2Zm-2-6h2a1 1 0 0 1 0 2h-2a1 1 0 0 1 0-2Zm-8 0h5a1 1 0 0 1 0 2h-5a1 1 0 0 1 0-2Zm0 4h2a1 1 0 0 1 0 2h-2a1 1 0 0 1 0-2Z"></path></svg>